<?xml version="1.0" encoding="utf-8"?>
<!-- Generator: Adobe Illustrator 26.0.0, SVG Export Plug-In . SVG Version: 6.00 Build 0)  -->
<svg version="1.1" id="图层_1" xmlns="http://www.w3.org/2000/svg" xmlns:xlink="http://www.w3.org/1999/xlink" x="0px" y="0px"
	 viewBox="0 0 854.33 364" style="enable-background:new 0 0 854.33 364;" xml:space="preserve">
<style type="text/css">
	.st0{fill:#86298B;stroke:#B63D91;stroke-width:1.5;}
	.st1{fill:none;}
	.st2{fill:#B63D91;}
</style>
<g>
	<g>
		<g>
			<path class="st0" d="M84.92,199.88c-3.04,0-5.82-2.02-6.65-5.09l-16.84-62.1c-1.5-5.53-0.48-11.4,2.79-16.11
				c3.12-4.5,7.98-7.36,13.33-7.86c0.63-0.06,1.26-0.09,1.9-0.09c9.01,0,16.86,5.78,19.53,14.38l18.59,59.88
				c1.13,3.64-0.9,7.5-4.54,8.63c-3.63,1.13-7.5-0.9-8.63-4.54l-18.59-59.88c-0.87-2.8-3.43-4.68-6.36-4.68
				c-0.21,0-0.42,0.01-0.62,0.03c-1.77,0.16-2.82,1.32-3.29,1.99c-0.93,1.34-1.23,3.07-0.8,4.64l16.84,62.1
				c1,3.67-1.18,7.46-4.85,8.46C86.12,199.8,85.52,199.88,84.92,199.88z"/>
		</g>
		<g>
			<path class="st0" d="M58.95,181.87c-2.8,0-5.43-1.72-6.46-4.5c-1.32-3.57,0.49-7.54,4.06-8.86l60.75-22.55
				c3.57-1.32,7.54,0.49,8.86,4.06c1.32,3.57-0.49,7.54-4.06,8.86l-60.75,22.55C60.56,181.73,59.75,181.87,58.95,181.87z"/>
		</g>
		<g>
			<path class="st0" d="M90.33,216.64c-8.81,0-16.1-2.71-17.92-9.51c-0.81-3.01-0.91-8.97,7.45-15.03
				c4.39-3.18,10.47-5.92,17.13-7.7c6.66-1.78,13.28-2.45,18.68-1.88c10.27,1.08,13.15,6.29,13.96,9.31l0,0
				c0.81,3.01,0.91,8.97-7.45,15.03c-4.39,3.18-10.47,5.92-17.13,7.7C100.12,215.87,95.01,216.64,90.33,216.64z M88.62,202.79
				c2.9,0.19,7.26-0.06,12.87-1.56c5.61-1.5,9.52-3.47,11.93-5.07c-2.9-0.19-7.26,0.06-12.87,1.56
				C94.95,199.22,91.04,201.19,88.62,202.79z"/>
		</g>
	</g>
	<path class="st0" d="M483.74,139.39c-4.05-18.34-13.57-25.18-20.85-27.7c-6.47-2.24-12.84-1.69-18.43,1.59
		c-5.62,3.3-9.76,8.99-12.74,14.85c-2.98-5.87-7.11-11.55-12.74-14.85c-5.59-3.28-11.96-3.83-18.43-1.59
		c-7.27,2.52-16.8,9.36-20.85,27.7c-3.05,13.81-1.45,28.65,4.63,42.91l12.13,28.44c1.12,2.62,3.66,4.19,6.34,4.19
		c0.9,0,1.82-0.18,2.7-0.55c3.5-1.49,5.13-5.54,3.64-9.04l-12.13-28.44c-4.95-11.6-6.28-23.54-3.85-34.53
		c2.15-9.72,6.15-15.66,11.89-17.65c2.68-0.93,4.82-0.79,6.94,0.45c6.75,3.95,11.52,17.88,12.94,25.73
		c0.01,0.05,0.03,0.09,0.04,0.14c0.05,0.26,0.13,0.5,0.21,0.75c0.06,0.19,0.11,0.39,0.19,0.57c0.09,0.21,0.2,0.4,0.31,0.6
		c0.11,0.2,0.2,0.4,0.33,0.58c0.12,0.18,0.27,0.34,0.41,0.52c0.14,0.17,0.27,0.34,0.42,0.5c0.17,0.17,0.36,0.31,0.55,0.46
		c0.15,0.13,0.3,0.26,0.46,0.37c0.2,0.13,0.41,0.24,0.62,0.35c0.19,0.1,0.36,0.21,0.56,0.29c0.19,0.08,0.39,0.13,0.59,0.2
		c0.24,0.08,0.48,0.16,0.73,0.21c0.05,0.01,0.09,0.03,0.14,0.04c0.15,0.03,0.3,0.02,0.46,0.04c0.25,0.03,0.51,0.06,0.76,0.06
		c0.23,0,0.45-0.03,0.68-0.05c0.18-0.02,0.35-0.01,0.53-0.04c0.06-0.01,0.11-0.03,0.16-0.05c0.22-0.04,0.42-0.12,0.64-0.18
		c0.23-0.07,0.46-0.13,0.68-0.23c0.16-0.07,0.31-0.16,0.47-0.24c0.24-0.13,0.49-0.25,0.71-0.4c0.13-0.09,0.25-0.2,0.37-0.3
		c0.22-0.17,0.44-0.34,0.64-0.54c0.12-0.13,0.23-0.27,0.34-0.4c0.17-0.2,0.34-0.39,0.49-0.61c0.11-0.16,0.19-0.33,0.28-0.5
		c0.12-0.22,0.25-0.44,0.35-0.68c0.07-0.17,0.12-0.35,0.18-0.53c0.08-0.26,0.17-0.51,0.22-0.78c0.01-0.05,0.03-0.09,0.04-0.14
		c1.42-7.86,6.19-21.79,12.94-25.74c2.12-1.24,4.26-1.38,6.94-0.45c5.74,1.99,9.75,7.92,11.89,17.64
		c2.43,10.99,1.1,22.93-3.85,34.53l-12.13,28.44c-1.49,3.5,0.13,7.55,3.64,9.04c0.88,0.38,1.8,0.55,2.7,0.55
		c2.68,0,5.23-1.57,6.34-4.19l12.13-28.45C485.19,168.04,486.79,153.2,483.74,139.39z M431.72,149.38c-1.19,0-2.15-2.46-2.15-5.5
		c0-3.04,0.96-10.66,2.15-10.66c1.19,0,2.15,7.62,2.15,10.66C433.87,146.91,432.91,149.38,431.72,149.38z"/>
	<g>
		<path class="st0" d="M192.17,110.6c-3.24-2-7.49-1-9.49,2.24l-19.35,31.31l-0.39,0.73l-19.74-32.04c-2-3.24-6.25-4.24-9.49-2.24
			c-3.24,2-4.24,6.25-2.24,9.49l19.17,31.01c0.62,1.23,1.41,2.33,2.32,3.3c0.7-2.92,4.89-5.18,9.98-5.18c5.09,0,9.29,2.25,9.98,5.18
			c0.91-0.96,1.7-2.06,2.32-3.3l19.17-31.01C196.41,116.85,195.41,112.6,192.17,110.6z"/>
		<g>
			<path class="st0" d="M162.94,215.7c-3.81,0-6.89-3.09-6.89-6.89v-51.36c0-3.81,3.09-6.89,6.89-6.89c3.81,0,6.89,3.09,6.89,6.89
				v51.36C169.83,212.61,166.74,215.7,162.94,215.7z"/>
		</g>
	</g>
	<g>
		<path class="st0" d="M271.04,217.29h-42.31c-11.11,0-20.16-9.04-20.16-20.16V116.2c0-3.81,3.09-6.89,6.89-6.89
			c3.81,0,6.89,3.09,6.89,6.89v80.93c0,3.51,2.86,6.37,6.37,6.37h42.31c3.81,0,6.89,3.09,6.89,6.89
			C277.93,214.2,274.84,217.29,271.04,217.29z"/>
	</g>
	<g>
		<path class="st1" d="M327.97,160.03c0.77,0.6,1.44,1.33,2.48,2.3c0,0,5.29-3.46,7.05-3.96c1.34-0.38,2.63-0.44,3.82-0.25
			l-10.85-29.58l-10.17,29.79C323.03,157.68,325.62,158.18,327.97,160.03z"/>
		<path class="st0" d="M337.5,158.37c-1.76,0.5-7.05,3.96-7.05,3.96c-1.04-0.97-1.71-1.7-2.48-2.3c-2.35-1.85-4.94-2.35-7.67-1.7
			l-3.82,11.18c0.23,0.21,0.48,0.41,0.76,0.6c1.79,1.21,3.75,2.21,5.73,3.07c3.63,1.58,6.72,3.65,7.96,8
			c0.77-3.33,2.83-5.17,5.5-6.45c2.13-1.03,4.33-1.93,6.42-3.05c1.03-0.55,1.96-1.22,2.69-2.05l-4.22-11.52
			C340.13,157.93,338.84,157.98,337.5,158.37z"/>
		<path class="st0" d="M373.52,205.88l-32.25-87.95c-1.59-4.74-5.98-7.85-11.01-7.81c-5.01,0.06-9.34,3.29-10.82,8.06l-29.98,87.84
			c-1.23,3.6,0.69,7.52,4.3,8.75c3.6,1.23,7.52-0.69,8.75-4.3l13.98-40.96c-1.52-1.39-2.09-3.28-1.76-5.49
			c0.4-2.64,1.86-4.43,4.34-5.33c0.41-0.15,0.82-0.27,1.23-0.37l10.17-29.79l10.85,29.58c3.89,0.64,6.58,4.08,5.79,8.34
			c-0.24,1.27-0.79,2.31-1.56,3.17l15.03,40.99c1.02,2.79,3.66,4.52,6.47,4.52c0.79,0,1.59-0.14,2.37-0.42
			C372.99,213.42,374.83,209.46,373.52,205.88z"/>
	</g>
	<g>
		<path class="st0" d="M531.07,215.57c-17.61,0-31.93-14.32-31.93-31.93v-67.04c0-3.81,3.09-6.89,6.89-6.89
			c3.81,0,6.89,3.09,6.89,6.89v67.04c0,10.01,8.14,18.15,18.15,18.15c10.01,0,18.15-8.14,18.15-18.15v-67.04
			c0-3.81,3.09-6.89,6.89-6.89c3.81,0,6.89,3.09,6.89,6.89v67.04C563,201.24,548.68,215.57,531.07,215.57z"/>
	</g>
	<g>
		<g>
			<g>
				
					<ellipse transform="matrix(0.1918 -0.9814 0.9814 0.1918 350.8996 706.7056)" class="st0" cx="604.55" cy="140.29" rx="9.37" ry="9.37"/>
			</g>
			<g>
				<path class="st2" d="M606.12,140.29c0,0.87-0.7,1.57-1.57,1.57c-0.87,0-1.57-0.7-1.57-1.57c0-0.87,0.7-1.57,1.57-1.57
					C605.42,138.72,606.12,139.42,606.12,140.29z"/>
			</g>
			<g>
				<path class="st0" d="M612.01,139.05c-0.26,0-0.5-0.16-0.6-0.42c-0.12-0.33,0.05-0.69,0.38-0.81l8.92-3.25
					c0.33-0.12,0.69,0.05,0.81,0.38c0.12,0.33-0.05,0.69-0.38,0.81l-8.92,3.25C612.15,139.04,612.08,139.05,612.01,139.05z"/>
			</g>
			<g>
				<path class="st0" d="M617.99,141.6c-0.26,0-0.5-0.16-0.6-0.42l-3.04-8.36c-0.12-0.33,0.05-0.69,0.38-0.81
					c0.33-0.12,0.69,0.05,0.81,0.38l3.04,8.36c0.12,0.33-0.05,0.69-0.38,0.81C618.14,141.59,618.06,141.6,617.99,141.6z"/>
			</g>
		</g>
		<g>
			<g>
				<circle class="st0" cx="615.64" cy="186.09" r="9.37"/>
			</g>
			<g>
				<circle class="st2" cx="615.64" cy="186.09" r="1.57"/>
			</g>
			<g>
				<path class="st0" d="M604.16,179.37c-0.28,0-0.53-0.18-0.61-0.47l-1.17-4.21c-0.19-0.46-0.09-1.05,0.3-1.47
					c0.39-0.42,0.97-0.57,1.52-0.39l4.21,0.82c0.34,0.07,0.57,0.4,0.5,0.75c-0.07,0.34-0.41,0.57-0.75,0.5l-4.29-0.84
					c-0.17-0.05-0.23-0.01-0.26,0.03c-0.04,0.04-0.07,0.1-0.04,0.19l1.19,4.28c0.09,0.34-0.11,0.69-0.44,0.78
					C604.27,179.36,604.22,179.37,604.16,179.37z"/>
			</g>
			<g>
				<path class="st0" d="M610.04,180.68c-0.15,0-0.31-0.06-0.43-0.17l-6.53-6.04c-0.26-0.24-0.27-0.64-0.03-0.9
					c0.24-0.26,0.64-0.27,0.9-0.03l6.53,6.04c0.26,0.24,0.27,0.64,0.03,0.9C610.38,180.61,610.21,180.68,610.04,180.68z"/>
			</g>
		</g>
		<g>
			<path class="st0" d="M613.39,215.32h-28.84c-3.81,0-6.89-3.09-6.89-6.89c0-3.81,3.09-6.89,6.89-6.89h28.84
				c8.76,0,15.89-7.13,15.89-15.89c0-8.76-7.13-15.89-15.89-15.89h-6.06c-16.36,0-29.67-13.31-29.67-29.67v-0.47
				c0-16.36,13.31-29.67,29.67-29.67h28.84c3.81,0,6.89,3.09,6.89,6.89c0,3.81-3.09,6.89-6.89,6.89h-28.84
				c-8.76,0-15.89,7.13-15.89,15.89v0.47c0,8.76,7.13,15.89,15.89,15.89h6.06c16.36,0,29.67,13.31,29.67,29.67
				C643.07,202.01,629.76,215.32,613.39,215.32z"/>
		</g>
	</g>
	<g>
		<g>
			<path class="st0" d="M723.72,214.96h-51.65c-8.16,0-14.8-6.64-14.8-14.8v-75.06c0-8.16,6.64-14.8,14.8-14.8h51.65
				c3.81,0,6.89,3.09,6.89,6.89c0,3.81-3.09,6.89-6.89,6.89h-51.65c-0.56,0-1.01,0.45-1.01,1.01v75.06c0,0.56,0.45,1.01,1.01,1.01
				h51.65c3.81,0,6.89,3.09,6.89,6.89C730.61,211.87,727.53,214.96,723.72,214.96z"/>
		</g>
		<g>
			<g>
				<path class="st0" d="M702.6,156.94c1.75,4.23,3.54,8.3,7.74,11.16c0.01,0.01,0.01,0.02,0,0.02
					c-12.36,1.42-24.43-0.49-36.79,1.46c-0.01,0-0.01,0.01-0.01,0.02c1.26,1.34,2.11,2.18,2.89,3.09c3.2,3.76,3.13,5.77-0.02,9.52
					c-2.27,2.7-5.11,3.71-8.5,3.24c-2.19-0.31-3.32-1.79-3.05-3.79c0.84-6.45,1.67-12.9,2.6-19.34c0.23-1.59,0.74-3.16,1.27-4.69
					c0.54-1.58,1.62-1.81,3.24-1.34c2.16,0.63,4.43,1.23,6.66,1.22C686.61,157.46,694.6,157.15,702.6,156.94
					C702.6,156.94,702.6,156.94,702.6,156.94z M670.19,184.47c2.55,0.03,3.17-0.31,6.31-3.4c2.3-2.27,2.19-4.96-0.32-7.27
					C679,178.54,677.12,181.44,670.19,184.47z M691.88,165.68c-3.07-1.08-8.17-0.83-10.73,0.61
					C684.76,166.09,688.54,165.87,691.88,165.68z M674.65,158.99c0.09-0.23,0.17-0.45,0.26-0.68c-1.61-0.39-3.36-1.32-4.79-0.97
					c-0.85,0.21-1.19,2.45-1.76,3.77c0.19,0.07,0.37,0.15,0.56,0.22c0.14-0.36,0.3-0.72,0.43-1.09c1-2.9,0.99-2.89,3.82-1.73
					C673.64,158.73,674.15,158.84,674.65,158.99z M696.52,158.54l0.01-0.22c0-0.01,0-0.01-0.01-0.01h-7.69c-0.01,0-0.01,0-0.01,0.01
					v0C693.81,158.47,691.53,158.4,696.52,158.54z M705.25,164.71c-0.11,0.08-0.23,0.16-0.34,0.24c0.5,0.66,0.99,1.31,1.51,1.99
					c-0.53,0.18-1.02,0.35-1.51,0.52c0.02,0.08,0.05,0.15,0.07,0.23c1,0,2,0,3.4,0C707.13,166.52,706.19,165.61,705.25,164.71z"/>
			</g>
			<g>
				<path class="st0" d="M708.25,155.47c2.7,1.13,5.51,2.05,8.05,3.47c1.9,1.06,2.5,3.17,2,5.34c-0.47,2.05-1.98,3.16-4.02,3.34
					c-0.74,0.07-1.79-0.33-2.35-0.81c-2.62-2.25-4.93-4.78-5.96-8.2c-0.66-2.19-0.26-2.67,2.05-2.57
					C708.09,155.85,708.17,155.66,708.25,155.47z M716.91,163.8c0.16-3.84-3.7-6.54-8.25-6C712.16,158.87,715.9,159.16,716.91,163.8
					z"/>
			</g>
		</g>
	</g>
	<g>
		<g>
			<path class="st0" d="M654.07,294.28c-1.46-0.01-2.66-1.06-2.88-2.48l-12.34-52.21l-7.58,28.79c-0.26,1.38-1.44,2.38-2.86,2.39
				c-1.47,0-2.69-1.04-2.91-2.47l-5.06-28.83l-3.77,17.07c-0.22,1.16-1.2,2.1-2.42,2.29c-0.16,0.02-0.3,0.04-0.45,0.04
				c-1.07,0-2.06-0.59-2.58-1.53c-0.03-0.06-0.06-0.12-0.09-0.19l-7.61-19.05l-3.12-5.77c-3.36,5.48-10.04,8.97-17.52,8.97
				c-0.31,0-0.62-0.01-0.93-0.02c-27.58-0.13-146.41-0.33-261.32-0.51c-116.6-0.19-237.17-0.38-265.53-0.52
				c-0.95-0.01-1.71-0.78-1.71-1.72c0-0.95,0.77-1.72,1.71-1.72c28.21-0.14,148.73-0.33,265.27-0.52
				c114.29-0.18,232.47-0.37,259.81-0.51c0.36-0.01,0.82-0.01,1.3-0.01c0.77,0,1.6,0,2.21-0.03c5-0.26,9.48-2.63,11.71-6.18
				c0.36-0.57,1.03-1.93,1.57-3.02c0.32-0.66,0.62-1.26,0.83-1.65c0.42-0.92,1.41-1.54,2.55-1.54c1.1,0,2.08,0.59,2.55,1.55
				c0,0,5.71,10.32,5.8,10.49c0.04,0.08,0.08,0.16,0.11,0.24l4.09,10.98l4.97-20.09c0.25-1.29,1.46-2.29,2.86-2.29
				c1.47,0.02,2.67,1.06,2.89,2.47l4.96,25.5l7.43-28.24c0.26-1.39,1.45-2.38,2.87-2.39c1.46,0,2.69,1.04,2.91,2.48l12.16,51.66
				l6.39-34.43c0.36-2.01,2.21-3.48,4.41-3.48c1.38,0,2.57,0.96,2.86,2.3l0.81,2.79l4.41-16.52c0.21-1.26,1.43-2.28,2.86-2.28
				c1.98,0,3.75,1.24,4.3,3.02c0.05,0.17,0.09,0.35,0.11,0.54l3.8,25.28l8.99-27.23c0.35-1.13,1.37-1.93,2.57-2.02
				c0.04,0,0.17-0.01,0.21-0.01c1.12,0,2.15,0.65,2.64,1.65l3.71,7.63c1.08,2.22,4.1,2.68,8.29,2.68h46.89
				c0.44-0.22,0.93-0.34,1.45-0.35l2.74,0.04c-2.51-2.01-5.23-3.73-7.86-5.33l-1.68-1.03c-4.74-2.9-10.12-6.18-13.18-11.49
				c-2.27-3.95-2.97-8.81-1.98-13.7c1.48-6.68,6.35-12.84,12.41-15.74c2.74-1.3,5.76-1.98,8.74-1.98c5.37,0,10.3,2.12,13.89,5.96
				c0.1,0.1,0.2,0.21,0.3,0.33c3.42-3.67,7.56-5.82,12.08-6.26c0.68-0.07,1.36-0.1,2.04-0.1c5.06,0,9.88,1.77,13.59,4.98
				c4.34,3.78,7.21,8.8,8.09,14.14c1.02,6.36-0.3,12.13-3.72,16.25c-3.53,4.23-8.24,6.67-12.79,9.04c-2.19,1.14-4.25,2.21-6.21,3.47
				c-11.08,6.91-13.27,14.74-7.83,27.96c0.33,0.8,0.01,1.73-0.74,2.15c-0.27,0.15-0.56,0.22-0.85,0.22c-0.53,0-1.05-0.24-1.38-0.69
				c-1.4-1.88-2.58-4.07-3.72-6.9c-1.65-3.96-2.12-8.31-1.32-12.25c1.09-5.87,5.3-11.17,12.5-15.75c2.21-1.43,4.55-2.65,6.81-3.84
				c2.08-1.09,4.05-2.13,5.94-3.31c2.19-1.39,3.74-2.67,4.84-4.01c1.79-2.11,2.78-5.04,2.82-8.26c0.2-5.16-2.09-10.38-6.14-14.02
				c-2.65-2.43-6.31-3.82-10.04-3.82c-3.72,0-7.1,1.36-9.51,3.83c-0.55,0.53-0.98,1.05-1.43,1.61c-0.28,0.34-0.57,0.69-0.88,1.05
				c-0.46,0.56-1.18,0.87-2.12,0.87l-0.24,0c-0.77,0-1.47-0.31-1.96-0.85c-0.33-0.36-0.6-0.7-0.87-1.04l-0.2-0.25
				c-0.83-1.05-1.77-1.95-2.79-2.71c-2.23-1.7-5-2.59-8.04-2.59c-2.29,0-4.58,0.52-6.63,1.51c-3.71,1.75-6.15,4.91-7.55,7.25
				c-2.73,4.55-2.89,10.44-0.39,14.67c0.8,1.35,1.93,2.67,3.37,3.93c2.86,2.41,6.11,4.32,9.56,6.34c3.62,2.13,7.37,4.32,10.66,7.19
				c0.2,0.18,0.36,0.32,0.52,0.46c0.6,0.51,1.28,1.09,1.77,1.95c0.81,1.52,0.76,3.25-0.1,4.68c-0.87,1.45-2.46,2.35-4.14,2.35
				c-0.12,0-0.24,0-0.37-0.01l-6,0.09c-0.39-0.01-0.73-0.06-1.05-0.17h-47.35c-4.96,0-10.99-0.68-13.57-5.98l-0.52-1.08
				l-10.75,32.66c-0.38,1.21-1.5,2.03-2.8,2.03c-0.05,0-0.22-0.01-0.27-0.01c-1.38-0.14-2.49-1.23-2.64-2.6l-3.96-27.01l-4.43,17.37
				c-0.21,1.27-1.42,2.29-2.85,2.3c-1.43,0-2.64-1.01-2.9-2.41l-1.26-4.92l-7.4,40.04c-0.25,1.39-1.46,2.41-2.89,2.41H654.07z"/>
		</g>
		<g>
			<g>
				<path class="st2" d="M786.18,187.67c4.52,0,9.03,1.59,12.47,4.56c3.88,3.37,6.68,8,7.52,13.12c0.83,5.14,0.08,10.75-3.34,14.86
					c-4.91,5.88-12.41,8.16-18.61,12.16c-12.48,7.78-13.88,16.98-8.49,30.07c-1.47-1.97-2.58-4.21-3.5-6.51
					c-1.47-3.52-2-7.5-1.23-11.27c1.2-6.46,6.43-11.26,11.74-14.64c4.12-2.66,8.66-4.59,12.75-7.14c1.98-1.26,3.84-2.65,5.26-4.38
					c2.19-2.58,3.17-5.97,3.21-9.34c0.23-5.79-2.38-11.43-6.71-15.32c-3.04-2.78-7.13-4.26-11.19-4.26c-3.95,0-7.86,1.4-10.74,4.35
					c-0.9,0.86-1.53,1.76-2.37,2.72c-0.2,0.25-0.52,0.28-0.83,0.28c-0.09,0-0.18,0-0.27-0.01c0,0-0.01,0-0.01,0
					c-0.25,0-0.47-0.11-0.63-0.28c-0.38-0.43-0.69-0.82-1.01-1.22c-0.91-1.14-1.94-2.15-3.11-3.01c-2.61-1.99-5.82-2.93-9.06-2.93
					c-2.54,0-5.09,0.58-7.38,1.68c-3.51,1.65-6.31,4.62-8.28,7.92c-2.96,4.92-3.34,11.44-0.4,16.43c0.96,1.63,2.26,3.07,3.72,4.35
					c6.15,5.18,14.03,8.15,20.22,13.53c0.67,0.62,1.47,1.15,1.93,1.96c1.1,2.06-0.49,4.45-2.74,4.45c-0.1,0-0.2,0-0.31-0.01
					l-6.09,0.09c-0.27-0.01-0.5-0.07-0.7-0.17h-47.68c-5.31,0-10.03-0.92-12.02-5.01l-2.38-4.9l-12.08,36.7
					c-0.16,0.51-0.64,0.85-1.16,0.85c-0.04,0-0.08,0-0.11-0.01c-0.57-0.06-1.02-0.5-1.08-1.07l-5.22-35.58l-6.56,25.71
					c-0.1,0.58-0.6,1-1.19,1c0,0,0,0,0,0c-0.58,0-1.09-0.42-1.19-0.99l-3.23-12.61l-8.82,47.73c-0.1,0.58-0.6,1-1.19,1
					c0,0-0.01,0-0.01,0c-0.59-0.01-1.09-0.44-1.18-1.02l-13.95-59.06l-9.35,35.54c-0.09,0.59-0.59,1.03-1.19,1.03c0,0-0.01,0-0.01,0
					c-0.59,0-1.1-0.43-1.19-1.02l-6.57-37.42l-5.65,25.56c-0.1,0.5-0.5,0.89-1,0.96c-0.06,0.01-0.12,0.01-0.18,0.01
					c-0.44,0-0.85-0.24-1.06-0.63l-7.64-19.14c0,0,0,0,0,0l-4.7-8.7l-0.67,1.3c-2.96,6.34-10.08,9.61-16.83,9.61
					c-0.28,0-0.57-0.01-0.85-0.02c-55.57-0.27-470.48-0.76-526.91-1.04c56.05-0.28,470.03-0.75,525.08-1.03
					c1.02-0.02,2.59,0.01,3.6-0.04c5.08-0.27,10.32-2.61,13.07-6.99c0.63-1,1.88-3.7,2.46-4.78c0.19-0.42,0.61-0.62,1.03-0.62
					c0.41,0,0.81,0.2,1.01,0.59c0,0,5.83,10.54,5.84,10.56c0,0,0,0,0,0l6.04,16.21l6.31-25.5c0.11-0.57,0.62-0.98,1.19-0.98
					c0.01,0,0.01,0,0.02,0c0.59,0.01,1.08,0.44,1.17,1.02l6.41,32.96l9.36-35.61c0.09-0.59,0.59-1.03,1.19-1.03c0,0,0,0,0,0
					c0.61,0,1.11,0.43,1.2,1.02l14.06,59.76l7.89-42.49c0.21-1.2,1.36-2.07,2.71-2.07c0.58,0,1.09,0.42,1.19,0.99l2.54,8.82
					l6.01-22.52c0.1-0.58,0.6-1,1.19-1c1.23,0,2.32,0.74,2.65,1.8c0.02,0.07,0.04,0.15,0.05,0.22l4.88,32.5l11.26-34.1
					c0.15-0.47,0.57-0.81,1.06-0.84c0.03,0,0.06,0,0.09,0c0.46,0,0.89,0.26,1.09,0.68l3.71,7.63c1.56,3.21,5.52,3.65,9.84,3.65h47.4
					c0.24-0.21,0.56-0.35,0.98-0.35l6.09,0.09l0.38,0c0.01,0,0.02,0,0.04,0c0.21,0,0.36-0.25,0.28-0.44
					c-0.01-0.02-0.03-0.06-0.06-0.08c0-0.01-0.01-0.01-0.04-0.04l-0.13-0.13c-3.19-3.11-6.93-5.52-10.81-7.9
					c-5.14-3.19-11.08-6.39-14.27-11.92c-2.15-3.76-2.63-8.3-1.79-12.5c1.36-6.11,5.82-11.82,11.47-14.52
					c2.55-1.21,5.29-1.81,8-1.81c4.67,0,9.26,1.8,12.63,5.41c0.54,0.56,1.05,1.21,1.55,1.82c3.05-3.88,7.22-6.72,12.26-7.21
					C784.93,187.7,785.55,187.67,786.18,187.67 M786.18,184.22c-0.74,0-1.49,0.04-2.22,0.11c-4.39,0.42-8.45,2.32-11.9,5.52
					c-3.79-3.58-8.79-5.56-14.21-5.56c-3.23,0-6.51,0.74-9.47,2.14c-6.54,3.12-11.78,9.75-13.36,16.89
					c-1.08,5.36-0.31,10.65,2.16,14.96c3.29,5.7,8.86,9.1,13.78,12.11c0.56,0.34,1.12,0.68,1.66,1.02c1.29,0.79,2.6,1.6,3.9,2.47
					h-46.21c-4.14,0-6.16-0.51-6.74-1.71l-3.71-7.63c-0.77-1.59-2.42-2.62-4.19-2.62c-0.11,0-0.23,0-0.34,0.01
					c-1.92,0.14-3.53,1.42-4.1,3.25l-6.71,20.32l-2.73-18.15c-0.03-0.26-0.09-0.51-0.16-0.76c-0.77-2.5-3.21-4.25-5.95-4.25
					c-2.2,0-4.08,1.53-4.55,3.66l-3.05,11.45c-0.85-0.87-2.04-1.4-3.33-1.4c-3.03,0-5.6,2.07-6.11,4.91l-4.89,26.36l-10.29-43.72
					c-0.43-2.19-2.32-3.76-4.57-3.76c-2.25,0.01-4.12,1.56-4.56,3.73l-5.49,20.89l-3.52-18.11c-0.39-2.19-2.27-3.8-4.51-3.84
					c0,0,0,0,0,0c-2.26,0-4.15,1.53-4.62,3.65l-3.62,14.61l-2.14-5.75c-0.06-0.16-0.13-0.32-0.21-0.47l-5.82-10.51
					c-0.78-1.49-2.33-2.41-4.05-2.41c-1.75,0-3.34,0.98-4.1,2.51c-0.21,0.4-0.5,0.99-0.82,1.64c-0.49,1-1.17,2.37-1.48,2.88
					c-1.93,3.08-5.89,5.14-10.33,5.37c-0.56,0.03-1.4,0.03-2.14,0.03c-0.49,0-0.95,0-1.35,0.01c-27.29,0.14-145.5,0.33-259.81,0.51
					c-116.52,0.19-237.01,0.38-265.22,0.52c-1.9,0.01-3.43,1.55-3.43,3.45c0,1.9,1.53,3.44,3.43,3.45
					c28.34,0.14,148.77,0.33,265.25,0.52c114.96,0.19,233.84,0.38,261.61,0.51c0.31,0.01,0.62,0.02,0.93,0.02
					c6.97,0,13.32-2.83,17.3-7.49l1.78,3.29l7.57,18.96c0.05,0.13,0.11,0.25,0.18,0.38c0.82,1.49,2.38,2.42,4.09,2.42
					c0.23,0,0.47-0.02,0.7-0.05c1.92-0.3,3.46-1.76,3.85-3.65l1.89-8.56l3.56,20.29c0.36,2.22,2.29,3.87,4.59,3.87
					c2.26-0.01,4.13-1.57,4.56-3.73l5.81-22.06l10.76,45.53c0.42,2.17,2.3,3.74,4.52,3.76c2.31,0,4.23-1.61,4.63-3.84l6.13-33.15
					c0.86,1.14,2.22,1.86,3.73,1.86c2.22-0.01,4.1-1.55,4.55-3.68l2.28-8.95l2.71,18.51c0.27,2.14,2.01,3.84,4.16,4.05
					c0.16,0.02,0.3,0.02,0.45,0.02c2.05,0,3.84-1.31,4.45-3.26l9.56-29.03c3.47,4.12,9.3,4.65,13.63,4.65h47.1
					c0.39,0.1,0.8,0.16,1.21,0.17c0.02,0,0.04,0,0.07,0c0.02,0,0.04,0,0.05,0l5.93-0.09c0.14,0.01,0.27,0.01,0.41,0.01
					c0.99,0,1.95-0.23,2.82-0.65c-0.12,0.46-0.23,0.93-0.32,1.4c-0.86,4.22-0.35,8.93,1.44,13.23c1.15,2.89,2.44,5.27,3.92,7.25
					c0.67,0.9,1.71,1.38,2.76,1.38c0.58,0,1.16-0.15,1.7-0.45c1.51-0.86,2.15-2.7,1.49-4.31c-5.1-12.41-3.17-19.41,7.13-25.83
					c1.93-1.25,3.96-2.3,6.11-3.42c4.7-2.44,9.57-4.97,13.32-9.46c3.75-4.51,5.2-10.76,4.1-17.62c-0.94-5.75-4.02-11.13-8.66-15.17
					C796.88,186.14,791.65,184.22,786.18,184.22L786.18,184.22z M771.5,235.43c-0.12-0.57-0.33-1.13-0.61-1.66
					c-0.02-0.03-0.03-0.06-0.05-0.09c-0.64-1.13-1.52-1.87-2.15-2.41c-0.15-0.12-0.29-0.25-0.43-0.37
					c-0.03-0.02-0.05-0.05-0.08-0.07c-3.42-2.97-7.23-5.21-10.92-7.38c-3.38-1.98-6.57-3.86-9.34-6.19
					c-1.26-1.1-2.28-2.28-2.98-3.47c-2.19-3.7-2.03-8.89,0.38-12.91c1.28-2.15,3.5-5.02,6.79-6.58c1.84-0.89,3.88-1.35,5.91-1.35
					c2.65,0,5.06,0.77,6.97,2.22c0.95,0.7,1.78,1.5,2.5,2.41l0.22,0.27c0.29,0.36,0.58,0.72,0.93,1.11c0.82,0.9,1.98,1.42,3.18,1.42
					l0.29,0.01c1.78,0,2.85-0.79,3.44-1.48c0.32-0.37,0.61-0.72,0.9-1.07c0.44-0.54,0.82-1,1.25-1.41c0.03-0.03,0.06-0.05,0.08-0.08
					c2.08-2.13,5.02-3.31,8.27-3.31c3.3,0,6.53,1.22,8.86,3.35c3.69,3.32,5.78,8.04,5.59,12.64c0,0.03,0,0.07,0,0.1
					c-0.03,2.83-0.88,5.36-2.39,7.15c-1.02,1.24-2.43,2.4-4.48,3.7c-1.82,1.14-3.76,2.16-5.82,3.24c-2.3,1.2-4.67,2.45-6.95,3.92
					C776.86,229.67,773.74,232.44,771.5,235.43L771.5,235.43z"/>
			</g>
		</g>
	</g>
</g>
</svg>
