<svg xmlns="http://www.w3.org/2000/svg" viewBox="0 0 64 64" role="img" aria-labelledby="title">
  <title>United States flag</title>
  <defs>
    <clipPath id="circle">
      <circle cx="32" cy="32" r="32" />
    </clipPath>
  </defs>
  <g clip-path="url(#circle)">
    <rect width="64" height="64" fill="#fff" />
    <rect y="0" width="64" height="4.93" fill="#b22234" />
    <rect y="9.86" width="64" height="4.93" fill="#b22234" />
    <rect y="19.72" width="64" height="4.93" fill="#b22234" />
    <rect y="29.58" width="64" height="4.93" fill="#b22234" />
    <rect y="39.44" width="64" height="4.93" fill="#b22234" />
    <rect y="49.3" width="64" height="4.93" fill="#b22234" />
    <rect y="59.16" width="64" height="4.84" fill="#b22234" />
    <rect width="29" height="34.5" fill="#3c3b6e" />
    <g fill="#fff">
      <circle cx="4" cy="4" r="1.2" />
      <circle cx="10" cy="4" r="1.2" />
      <circle cx="16" cy="4" r="1.2" />
      <circle cx="22" cy="4" r="1.2" />
      <circle cx="4" cy="10" r="1.2" />
      <circle cx="10" cy="10" r="1.2" />
      <circle cx="16" cy="10" r="1.2" />
      <circle cx="22" cy="10" r="1.2" />
      <circle cx="7" cy="16" r="1.2" />
      <circle cx="13" cy="16" r="1.2" />
      <circle cx="19" cy="16" r="1.2" />
      <circle cx="25" cy="16" r="1.2" />
      <circle cx="4" cy="22" r="1.2" />
      <circle cx="10" cy="22" r="1.2" />
      <circle cx="16" cy="22" r="1.2" />
      <circle cx="22" cy="22" r="1.2" />
      <circle cx="7" cy="28" r="1.2" />
      <circle cx="13" cy="28" r="1.2" />
      <circle cx="19" cy="28" r="1.2" />
      <circle cx="25" cy="28" r="1.2" />
    </g>
  </g>
</svg>
