<svg width="1600" height="900" viewBox="0 0 1600 900" fill="none" xmlns="http://www.w3.org/2000/svg">
  <rect width="1600" height="900" fill="#EEDFC9"/>
  <rect width="1600" height="900" fill="url(#paint0_linear)"/>
  <circle cx="1240" cy="140" r="170" fill="#F7EFD5" fill-opacity="0.7"/>
  <path d="M0 571L215 432L336 506L523 337L716 505L880 273L1107 501L1309 307L1600 577V900H0V571Z" fill="#6E8671"/>
  <path d="M0 659L264 471L426 549L592 421L751 582L950 404L1121 608L1340 466L1600 654V900H0V659Z" fill="#91A38A"/>
  <path d="M0 743L216 632L399 675L604 582L835 709L1013 595L1235 714L1436 621L1600 711V900H0V743Z" fill="#B8C6B1"/>
  <ellipse cx="887" cy="680" rx="341" ry="72" fill="#D7D7C3" fill-opacity="0.75"/>
  <defs>
    <linearGradient id="paint0_linear" x1="800" y1="0" x2="800" y2="900" gradientUnits="userSpaceOnUse">
      <stop stop-color="#F5D8A8"/>
      <stop offset="1" stop-color="#C7D8D4"/>
    </linearGradient>
  </defs>
</svg>
